<svg width="139" height="37" viewBox="0 0 139 37" fill="none" xmlns="http://www.w3.org/2000/svg">
<path d="M49 12.1388C48.712 12.1068 48.512 12.0908 48.4 12.0908C48 12.0908 47.696 12.1708 47.488 12.3308C47.28 12.4748 47.136 12.7308 47.056 13.0988H49V17.5388H47.008V26.6348H41.68V17.5388H40.24V13.0988H41.68C41.712 11.3388 42.264 9.97877 43.336 9.01876C44.424 8.04277 45.944 7.55477 47.896 7.55477C48.12 7.55477 48.488 7.57077 49 7.60276V12.1388ZM53.1224 12.0188C52.1944 12.0188 51.4504 11.7708 50.8904 11.2748C50.3304 10.7788 50.0504 10.1548 50.0504 9.40276C50.0504 8.63476 50.3304 8.00276 50.8904 7.50676C51.4504 6.99476 52.1944 6.73876 53.1224 6.73876C54.0344 6.73876 54.7704 6.99476 55.3304 7.50676C55.8904 8.00276 56.1704 8.63476 56.1704 9.40276C56.1704 10.1548 55.8904 10.7788 55.3304 11.2748C54.7704 11.7708 54.0344 12.0188 53.1224 12.0188ZM55.7624 13.0988V26.6348H50.4344V13.0988H55.7624ZM63.4968 8.87477V26.6348H58.1688V8.87477H63.4968ZM83.9751 13.0028C85.7031 13.0028 87.0391 13.5228 87.9831 14.5628C88.9431 15.6028 89.4231 17.0108 89.4231 18.7868V26.6348H84.1191V19.4588C84.1191 18.8828 83.9431 18.4348 83.5911 18.1148C83.2551 17.7788 82.7991 17.6108 82.2231 17.6108C81.6311 17.6108 81.1671 17.7788 80.8311 18.1148C80.4951 18.4348 80.3271 18.8828 80.3271 19.4588V26.6348H75.0231V19.4588C75.0231 18.8828 74.8471 18.4348 74.4951 18.1148C74.1591 17.7788 73.7031 17.6108 73.1271 17.6108C72.5351 17.6108 72.0711 17.7788 71.7351 18.1148C71.3991 18.4348 71.2311 18.8828 71.2311 19.4588V26.6348H65.9031V13.0988H71.2311V14.9228C71.6151 14.3468 72.1351 13.8828 72.7911 13.5308C73.4631 13.1788 74.2471 13.0028 75.1431 13.0028C76.1191 13.0028 76.9831 13.2188 77.7351 13.6508C78.4871 14.0668 79.0871 14.6588 79.5351 15.4268C80.0311 14.7228 80.6631 14.1468 81.4311 13.6988C82.1991 13.2348 83.0471 13.0028 83.9751 13.0028ZM93.9873 23.3588C93.9873 22.6788 94.1233 22.0868 94.3953 21.5828C94.6673 21.0708 95.0433 20.6788 95.5233 20.4068C96.0033 20.1268 96.5513 19.9868 97.1673 19.9868C97.9753 19.9868 98.6393 20.1868 99.1593 20.5868C99.6873 20.9868 100.027 21.5308 100.179 22.2188H99.2793C99.1673 21.7468 98.9233 21.3788 98.5473 21.1148C98.1793 20.8428 97.7193 20.7068 97.1673 20.7068C96.7273 20.7068 96.3313 20.8068 95.9793 21.0068C95.6273 21.2068 95.3473 21.5068 95.1393 21.9068C94.9393 22.2988 94.8393 22.7828 94.8393 23.3588C94.8393 23.9348 94.9393 24.4228 95.1393 24.8228C95.3473 25.2228 95.6273 25.5228 95.9793 25.7228C96.3313 25.9228 96.7273 26.0228 97.1673 26.0228C97.7193 26.0228 98.1793 25.8908 98.5473 25.6268C98.9233 25.3548 99.1673 24.9788 99.2793 24.4988H100.179C100.027 25.1708 99.6873 25.7108 99.1593 26.1188C98.6313 26.5268 97.9673 26.7308 97.1673 26.7308C96.5513 26.7308 96.0033 26.5948 95.5233 26.3228C95.0433 26.0428 94.6673 25.6508 94.3953 25.1468C94.1233 24.6348 93.9873 24.0388 93.9873 23.3588ZM107.191 18.8468C107.023 18.8468 106.879 18.7868 106.759 18.6668C106.639 18.5468 106.579 18.3988 106.579 18.2228C106.579 18.0468 106.639 17.9028 106.759 17.7908C106.879 17.6708 107.023 17.6108 107.191 17.6108C107.359 17.6108 107.503 17.6708 107.623 17.7908C107.743 17.9028 107.803 18.0468 107.803 18.2228C107.803 18.3988 107.743 18.5468 107.623 18.6668C107.503 18.7868 107.359 18.8468 107.191 18.8468ZM107.611 20.0828V26.6348H106.771V20.0828H107.611ZM119.953 20.0828L116.065 29.7188H115.189L116.461 26.5988L113.773 20.0828H114.697L116.929 25.6748L119.089 20.0828H119.953ZM126.552 18.8468C126.384 18.8468 126.24 18.7868 126.12 18.6668C126 18.5468 125.94 18.3988 125.94 18.2228C125.94 18.0468 126 17.9028 126.12 17.7908C126.24 17.6708 126.384 17.6108 126.552 17.6108C126.72 17.6108 126.864 17.6708 126.984 17.7908C127.104 17.9028 127.164 18.0468 127.164 18.2228C127.164 18.3988 127.104 18.5468 126.984 18.6668C126.864 18.7868 126.72 18.8468 126.552 18.8468ZM126.972 20.0828V26.6348H126.132V20.0828H126.972ZM134.358 25.9388H137.79V26.6348H133.398V25.9388L136.77 20.7788H133.458V20.0828H137.73V20.7788L134.358 25.9388Z" fill="white"/>
<g clip-path="url(#clip0_2_32)">
<path d="M27.4621 16.0825C28.8231 16.8468 28.8231 18.806 27.4621 19.5703L6.89819 31.118C5.565 31.8667 3.91892 30.9032 3.91892 29.3741V17.8264V6.27867C3.91892 4.74966 5.56499 3.78616 6.89819 4.53481L27.4621 16.0825Z" fill="white"/>
<g filter="url(#filter0_d_2_32)">
<path d="M18.8875 17.3553C19.5517 17.7406 19.5517 18.6998 18.8875 19.0852L10.7113 23.8288C10.0446 24.2155 9.20946 23.7345 9.20946 22.9638L9.20946 13.4766C9.20946 12.7059 10.0446 12.2249 10.7113 12.6117L18.8875 17.3553Z" fill="url(#paint0_linear_2_32)"/>
</g>
</g>
<defs>
<filter id="filter0_d_2_32" x="6.20946" y="12.4751" width="16.1762" height="17.4902" filterUnits="userSpaceOnUse" color-interpolation-filters="sRGB">
<feFlood flood-opacity="0" result="BackgroundImageFix"/>
<feColorMatrix in="SourceAlpha" type="matrix" values="0 0 0 0 0 0 0 0 0 0 0 0 0 0 0 0 0 0 127 0" result="hardAlpha"/>
<feOffset dy="3"/>
<feGaussianBlur stdDeviation="1.5"/>
<feComposite in2="hardAlpha" operator="out"/>
<feColorMatrix type="matrix" values="0 0 0 0 0 0 0 0 0 0 0 0 0 0 0 0 0 0 0.25 0"/>
<feBlend mode="normal" in2="BackgroundImageFix" result="effect1_dropShadow_2_32"/>
<feBlend mode="normal" in="SourceGraphic" in2="effect1_dropShadow_2_32" result="shape"/>
</filter>
<linearGradient id="paint0_linear_2_32" x1="20.3784" y1="18.2202" x2="5.48649" y2="18.2202" gradientUnits="userSpaceOnUse">
<stop stop-color="#FF4DE2"/>
<stop offset="1" stop-color="#9B35EC"/>
</linearGradient>
<clipPath id="clip0_2_32">
<rect y="3.64941" width="29" height="29.1416" fill="white"/>
</clipPath>
</defs>
</svg>
