<svg width="37" height="37" viewBox="0 0 37 37" fill="none" xmlns="http://www.w3.org/2000/svg">
<path d="M29.2917 4.625H7.70833C6.0125 4.625 4.625 6.0125 4.625 7.70833V29.2917C4.625 30.9875 6.0125 32.375 7.70833 32.375H29.2917C30.9875 32.375 32.375 30.9875 32.375 29.2917V7.70833C32.375 6.0125 30.9875 4.625 29.2917 4.625ZM29.2917 29.2917H7.70833V7.70833H29.2917V29.2917Z" fill="#9A5BFF"/>
<path d="M13.875 18.5H10.7917V26.2083H13.875V18.5Z" fill="#9A5BFF"/>
<path d="M26.2083 10.7917H23.125V26.2084H26.2083V10.7917Z" fill="#9A5BFF"/>
<path d="M20.0417 21.5833H16.9583V26.2083H20.0417V21.5833Z" fill="#9A5BFF"/>
<path d="M20.0417 15.4167H16.9583V18.5H20.0417V15.4167Z" fill="#9A5BFF"/>
</svg>
