<svg width="14" height="14" viewBox="0 0 14 14" fill="none" xmlns="http://www.w3.org/2000/svg">
<path d="M6.57043 3.7606C8.64559 3.7606 10.4963 4.92685 11.3997 6.77204C10.4963 8.61724 8.64559 9.78349 6.57043 9.78349C4.49528 9.78349 2.64461 8.61724 1.74117 6.77204C2.64461 4.92685 4.49528 3.7606 6.57043 3.7606ZM6.57043 2.66553C3.83276 2.66553 1.49478 4.36836 0.547546 6.77204C1.49478 9.17572 3.83276 10.8786 6.57043 10.8786C9.30811 10.8786 11.6461 9.17572 12.5933 6.77204C11.6461 4.36836 9.30811 2.66553 6.57043 2.66553ZM6.57043 5.4032C7.32603 5.4032 7.93927 6.01644 7.93927 6.77204C7.93927 7.52764 7.32603 8.14088 6.57043 8.14088C5.81483 8.14088 5.2016 7.52764 5.2016 6.77204C5.2016 6.01644 5.81483 5.4032 6.57043 5.4032ZM6.57043 4.30813C5.21255 4.30813 4.10652 5.41415 4.10652 6.77204C4.10652 8.12993 5.21255 9.23595 6.57043 9.23595C7.92832 9.23595 9.03434 8.12993 9.03434 6.77204C9.03434 5.41415 7.92832 4.30813 6.57043 4.30813Z" fill="white"/>
</svg>
