<svg width="14" height="14" viewBox="0 0 14 14" fill="none" xmlns="http://www.w3.org/2000/svg">
<path d="M7.36622 1.57043C4.35478 1.57043 1.89087 4.03434 1.89087 7.04579C1.89087 10.0572 4.35478 12.5211 7.36622 12.5211C10.3777 12.5211 12.8416 10.0572 12.8416 7.04579C12.8416 4.03434 10.3777 1.57043 7.36622 1.57043ZM7.36622 11.4261C4.95159 11.4261 2.98594 9.46042 2.98594 7.04579C2.98594 4.63116 4.95159 2.66551 7.36622 2.66551C9.78085 2.66551 11.7465 4.63116 11.7465 7.04579C11.7465 9.46042 9.78085 11.4261 7.36622 11.4261ZM7.63999 4.30811H6.81869V7.59332L9.66587 9.34544L10.1039 8.63364L7.63999 7.15529V4.30811Z" fill="white"/>
</svg>
